<svg width="6046" height="6046" xmlns="http://www.w3.org/2000/svg" xmlns:xlink="http://www.w3.org/1999/xlink" xml:space="preserve" overflow="hidden"><defs><linearGradient x1="1673" y1="1674" x2="7714" y2="7715" gradientUnits="userSpaceOnUse" spreadMethod="reflect" id="fill0"><stop offset="0" stop-color="#DC32E6" stop-opacity="1"/><stop offset="0.15" stop-color="#DC32E6" stop-opacity="1"/><stop offset="0.82" stop-color="#5A4BE1" stop-opacity="1"/><stop offset="1" stop-color="#5A4BE1" stop-opacity="1"/></linearGradient><linearGradient x1="1673" y1="1674" x2="7714" y2="7715" gradientUnits="userSpaceOnUse" spreadMethod="reflect" id="fill1"><stop offset="0" stop-color="#DC32E6" stop-opacity="1"/><stop offset="0.15" stop-color="#DC32E6" stop-opacity="1"/><stop offset="0.82" stop-color="#5A4BE1" stop-opacity="1"/><stop offset="1" stop-color="#5A4BE1" stop-opacity="1"/></linearGradient><linearGradient x1="1673" y1="1674" x2="7714" y2="7715" gradientUnits="userSpaceOnUse" spreadMethod="reflect" id="fill2"><stop offset="0" stop-color="#DC32E6" stop-opacity="1"/><stop offset="0.15" stop-color="#DC32E6" stop-opacity="1"/><stop offset="0.82" stop-color="#5A4BE1" stop-opacity="1"/><stop offset="1" stop-color="#5A4BE1" stop-opacity="1"/></linearGradient><linearGradient x1="1673" y1="1674" x2="7714" y2="7715" gradientUnits="userSpaceOnUse" spreadMethod="reflect" id="fill3"><stop offset="0" stop-color="#DC32E6" stop-opacity="1"/><stop offset="0.15" stop-color="#DC32E6" stop-opacity="1"/><stop offset="0.82" stop-color="#5A4BE1" stop-opacity="1"/><stop offset="1" stop-color="#5A4BE1" stop-opacity="1"/></linearGradient><linearGradient x1="1673" y1="1674" x2="7714" y2="7715" gradientUnits="userSpaceOnUse" spreadMethod="reflect" id="fill4"><stop offset="0" stop-color="#DC32E6" stop-opacity="1"/><stop offset="0.15" stop-color="#DC32E6" stop-opacity="1"/><stop offset="0.82" stop-color="#5A4BE1" stop-opacity="1"/><stop offset="1" stop-color="#5A4BE1" stop-opacity="1"/></linearGradient><linearGradient x1="1673" y1="1674" x2="7714" y2="7715" gradientUnits="userSpaceOnUse" spreadMethod="reflect" id="fill5"><stop offset="0" stop-color="#DC32E6" stop-opacity="1"/><stop offset="0.15" stop-color="#DC32E6" stop-opacity="1"/><stop offset="0.82" stop-color="#5A4BE1" stop-opacity="1"/><stop offset="1" stop-color="#5A4BE1" stop-opacity="1"/></linearGradient><linearGradient x1="1673" y1="1674" x2="7714" y2="7715" gradientUnits="userSpaceOnUse" spreadMethod="reflect" id="fill6"><stop offset="0" stop-color="#DC32E6" stop-opacity="1"/><stop offset="0.15" stop-color="#DC32E6" stop-opacity="1"/><stop offset="0.82" stop-color="#5A4BE1" stop-opacity="1"/><stop offset="1" stop-color="#5A4BE1" stop-opacity="1"/></linearGradient><linearGradient x1="1673" y1="1674" x2="7714" y2="7715" gradientUnits="userSpaceOnUse" spreadMethod="reflect" id="fill7"><stop offset="0" stop-color="#DC32E6" stop-opacity="1"/><stop offset="0.15" stop-color="#DC32E6" stop-opacity="1"/><stop offset="0.82" stop-color="#5A4BE1" stop-opacity="1"/><stop offset="1" stop-color="#5A4BE1" stop-opacity="1"/></linearGradient><linearGradient x1="1673" y1="1674" x2="7714" y2="7715" gradientUnits="userSpaceOnUse" spreadMethod="reflect" id="fill8"><stop offset="0" stop-color="#DC32E6" stop-opacity="1"/><stop offset="0.15" stop-color="#DC32E6" stop-opacity="1"/><stop offset="0.82" stop-color="#5A4BE1" stop-opacity="1"/><stop offset="1" stop-color="#5A4BE1" stop-opacity="1"/></linearGradient><linearGradient x1="1673" y1="1674" x2="7714" y2="7715" gradientUnits="userSpaceOnUse" spreadMethod="reflect" id="fill9"><stop offset="0" stop-color="#DC32E6" stop-opacity="1"/><stop offset="0.15" stop-color="#DC32E6" stop-opacity="1"/><stop offset="0.82" stop-color="#5A4BE1" stop-opacity="1"/><stop offset="1" stop-color="#5A4BE1" stop-opacity="1"/></linearGradient><linearGradient x1="1673" y1="1674" x2="7714" y2="7715" gradientUnits="userSpaceOnUse" spreadMethod="reflect" id="fill10"><stop offset="0" stop-color="#DC32E6" stop-opacity="1"/><stop offset="0.15" stop-color="#DC32E6" stop-opacity="1"/><stop offset="0.82" stop-color="#5A4BE1" stop-opacity="1"/><stop offset="1" stop-color="#5A4BE1" stop-opacity="1"/></linearGradient><linearGradient x1="1673" y1="1674" x2="7714" y2="7715" gradientUnits="userSpaceOnUse" spreadMethod="reflect" id="fill11"><stop offset="0" stop-color="#DC32E6" stop-opacity="1"/><stop offset="0.15" stop-color="#DC32E6" stop-opacity="1"/><stop offset="0.82" stop-color="#5A4BE1" stop-opacity="1"/><stop offset="1" stop-color="#5A4BE1" stop-opacity="1"/></linearGradient><linearGradient x1="1673" y1="1674" x2="7714" y2="7715" gradientUnits="userSpaceOnUse" spreadMethod="reflect" id="fill12"><stop offset="0" stop-color="#DC32E6" stop-opacity="1"/><stop offset="0.15" stop-color="#DC32E6" stop-opacity="1"/><stop offset="0.82" stop-color="#5A4BE1" stop-opacity="1"/><stop offset="1" stop-color="#5A4BE1" stop-opacity="1"/></linearGradient><linearGradient x1="1673" y1="1674" x2="7714" y2="7715" gradientUnits="userSpaceOnUse" spreadMethod="reflect" id="fill13"><stop offset="0" stop-color="#DC32E6" stop-opacity="1"/><stop offset="0.15" stop-color="#DC32E6" stop-opacity="1"/><stop offset="0.82" stop-color="#5A4BE1" stop-opacity="1"/><stop offset="1" stop-color="#5A4BE1" stop-opacity="1"/></linearGradient><linearGradient x1="1673" y1="1674" x2="7714" y2="7715" gradientUnits="userSpaceOnUse" spreadMethod="reflect" id="fill14"><stop offset="0" stop-color="#DC32E6" stop-opacity="1"/><stop offset="0.15" stop-color="#DC32E6" stop-opacity="1"/><stop offset="0.82" stop-color="#5A4BE1" stop-opacity="1"/><stop offset="1" stop-color="#5A4BE1" stop-opacity="1"/></linearGradient><linearGradient x1="1673" y1="1674" x2="7714" y2="7715" gradientUnits="userSpaceOnUse" spreadMethod="reflect" id="fill15"><stop offset="0" stop-color="#DC32E6" stop-opacity="1"/><stop offset="0.15" stop-color="#DC32E6" stop-opacity="1"/><stop offset="0.82" stop-color="#5A4BE1" stop-opacity="1"/><stop offset="1" stop-color="#5A4BE1" stop-opacity="1"/></linearGradient><linearGradient x1="1673" y1="1674" x2="7714" y2="7715" gradientUnits="userSpaceOnUse" spreadMethod="reflect" id="fill16"><stop offset="0" stop-color="#DC32E6" stop-opacity="1"/><stop offset="0.15" stop-color="#DC32E6" stop-opacity="1"/><stop offset="0.82" stop-color="#5A4BE1" stop-opacity="1"/><stop offset="1" stop-color="#5A4BE1" stop-opacity="1"/></linearGradient><linearGradient x1="1673" y1="1674" x2="7714" y2="7715" gradientUnits="userSpaceOnUse" spreadMethod="reflect" id="fill17"><stop offset="0" stop-color="#DC32E6" stop-opacity="1"/><stop offset="0.15" stop-color="#DC32E6" stop-opacity="1"/><stop offset="0.82" stop-color="#5A4BE1" stop-opacity="1"/><stop offset="1" stop-color="#5A4BE1" stop-opacity="1"/></linearGradient><linearGradient x1="1673" y1="1674" x2="7714" y2="7715" gradientUnits="userSpaceOnUse" spreadMethod="reflect" id="fill18"><stop offset="0" stop-color="#DC32E6" stop-opacity="1"/><stop offset="0.15" stop-color="#DC32E6" stop-opacity="1"/><stop offset="0.82" stop-color="#5A4BE1" stop-opacity="1"/><stop offset="1" stop-color="#5A4BE1" stop-opacity="1"/></linearGradient><linearGradient x1="1673" y1="1674" x2="7714" y2="7715" gradientUnits="userSpaceOnUse" spreadMethod="reflect" id="fill19"><stop offset="0" stop-color="#DC32E6" stop-opacity="1"/><stop offset="0.15" stop-color="#DC32E6" stop-opacity="1"/><stop offset="0.82" stop-color="#5A4BE1" stop-opacity="1"/><stop offset="1" stop-color="#5A4BE1" stop-opacity="1"/></linearGradient><linearGradient x1="1673" y1="1674" x2="7714" y2="7715" gradientUnits="userSpaceOnUse" spreadMethod="reflect" id="fill20"><stop offset="0" stop-color="#DC32E6" stop-opacity="1"/><stop offset="0.15" stop-color="#DC32E6" stop-opacity="1"/><stop offset="0.82" stop-color="#5A4BE1" stop-opacity="1"/><stop offset="1" stop-color="#5A4BE1" stop-opacity="1"/></linearGradient><linearGradient x1="1673" y1="1674" x2="7714" y2="7715" gradientUnits="userSpaceOnUse" spreadMethod="reflect" id="fill21"><stop offset="0" stop-color="#DC32E6" stop-opacity="1"/><stop offset="0.15" stop-color="#DC32E6" stop-opacity="1"/><stop offset="0.82" stop-color="#5A4BE1" stop-opacity="1"/><stop offset="1" stop-color="#5A4BE1" stop-opacity="1"/></linearGradient><linearGradient x1="1673" y1="1674" x2="7714" y2="7715" gradientUnits="userSpaceOnUse" spreadMethod="reflect" id="fill22"><stop offset="0" stop-color="#DC32E6" stop-opacity="1"/><stop offset="0.15" stop-color="#DC32E6" stop-opacity="1"/><stop offset="0.82" stop-color="#5A4BE1" stop-opacity="1"/><stop offset="1" stop-color="#5A4BE1" stop-opacity="1"/></linearGradient><linearGradient x1="1673" y1="1674" x2="7714" y2="7715" gradientUnits="userSpaceOnUse" spreadMethod="reflect" id="fill23"><stop offset="0" stop-color="#DC32E6" stop-opacity="1"/><stop offset="0.15" stop-color="#DC32E6" stop-opacity="1"/><stop offset="0.82" stop-color="#5A4BE1" stop-opacity="1"/><stop offset="1" stop-color="#5A4BE1" stop-opacity="1"/></linearGradient></defs><g transform="translate(-1672 -1672)"><g><path d="M4287 2080C4287 1855.77 4468.77 1674 4693 1674 4917.23 1674 5099 1855.77 5099 2080 5099 2304.23 4917.23 2486 4693 2486 4468.77 2486 4287 2304.23 4287 2080Z" fill="url(#fill0)" fill-rule="evenodd"/><path d="M4806 2883.26 4806 3790.74C4806 3909.63 4755.18 4006 4692.5 4006 4629.82 4006 4579 3909.63 4579 3790.74L4579 2883.26C4579 2764.37 4629.82 2668 4692.5 2668 4755.18 2668 4806 2764.37 4806 2883.26Z" fill="url(#fill1)" fill-rule="evenodd"/><path d="M4806 2693.63 4806 3244.37C4806 3316.51 4755.18 3375 4692.5 3375 4629.82 3375 4579 3316.51 4579 3244.37L4579 2693.63C4579 2621.49 4629.82 2563 4692.5 2563 4755.18 2563 4806 2621.49 4806 2693.63Z" fill="url(#fill2)" fill-rule="evenodd"/><path d="M5099 7309C5099 7533.23 4917.23 7715 4693 7715 4468.77 7715 4287 7533.23 4287 7309 4287 7084.77 4468.77 6903 4693 6903 4917.23 6903 5099 7084.77 5099 7309Z" fill="url(#fill3)" fill-rule="evenodd"/><path d="M4581 6505.74 4581 5598.26C4581 5479.37 4631.82 5383 4694.5 5383 4757.18 5383 4808 5479.37 4808 5598.26L4808 6505.74C4808 6624.63 4757.18 6721 4694.5 6721 4631.82 6721 4581 6624.63 4581 6505.74Z" fill="url(#fill4)" fill-rule="evenodd"/><path d="M4581 6695.37 4581 6144.63C4581 6072.49 4631.82 6014 4694.5 6014 4757.18 6014 4808 6072.49 4808 6144.63L4808 6695.37C4808 6767.51 4757.18 6826 4694.5 6826 4631.82 6826 4581 6767.51 4581 6695.37Z" fill="url(#fill5)" fill-rule="evenodd"/><path d="M7308 4289C7532.23 4289 7714 4470.55 7714 4694.5 7714 4918.45 7532.23 5100 7308 5100 7083.77 5100 6902 4918.45 6902 4694.5 6902 4470.55 7083.77 4289 7308 4289Z" fill="url(#fill6)" fill-rule="evenodd"/><path d="M6504.74 4807 5597.26 4807C5478.37 4807 5382 4756.18 5382 4693.5 5382 4630.82 5478.37 4580 5597.26 4580L6504.74 4580C6623.63 4580 6720 4630.82 6720 4693.5 6720 4756.18 6623.63 4807 6504.74 4807Z" fill="url(#fill7)" fill-rule="evenodd"/><path d="M6694.37 4807 6143.63 4807C6071.49 4807 6013 4756.18 6013 4693.5 6013 4630.82 6071.49 4580 6143.63 4580L6694.37 4580C6766.51 4580 6825 4630.82 6825 4693.5 6825 4756.18 6766.51 4807 6694.37 4807Z" fill="url(#fill8)" fill-rule="evenodd"/><path d="M2079 5100C1854.77 5100 1673 4918.45 1673 4694.5 1673 4470.55 1854.77 4289 2079 4289 2303.23 4289 2485 4470.55 2485 4694.5 2485 4918.45 2303.23 5100 2079 5100Z" fill="url(#fill9)" fill-rule="evenodd"/><path d="M2882.26 4582 3789.74 4582C3908.63 4582 4005 4632.82 4005 4695.5 4005 4758.18 3908.63 4809 3789.74 4809L2882.26 4809C2763.37 4809 2667 4758.18 2667 4695.5 2667 4632.82 2763.37 4582 2882.26 4582Z" fill="url(#fill10)" fill-rule="evenodd"/><path d="M2692.63 4582 3243.37 4582C3315.51 4582 3374 4632.82 3374 4695.5 3374 4758.18 3315.51 4809 3243.37 4809L2692.63 4809C2620.49 4809 2562 4758.18 2562 4695.5 2562 4632.82 2620.49 4582 2692.63 4582Z" fill="url(#fill11)" fill-rule="evenodd"/><path d="M6255.08 2557.63C6413.58 2399.13 6670.56 2399.13 6829.06 2557.63 6987.57 2716.14 6987.57 2973.12 6829.06 3131.62 6670.56 3290.13 6413.58 3290.13 6255.08 3131.62 6096.57 2973.12 6096.57 2716.14 6255.08 2557.63Z" fill="url(#fill12)" fill-rule="evenodd"/><path d="M6053.63 3492.21 5411.78 4134.06C5327.69 4218.15 5223.55 4250.33 5179.17 4205.95 5134.79 4161.57 5166.97 4057.43 5251.06 3973.35L5892.92 3331.49C5977 3247.4 6081.14 3215.22 6125.52 3259.6 6169.9 3303.98 6137.72 3408.12 6053.63 3492.21Z" fill="url(#fill13)" fill-rule="evenodd"/><path d="M6187.62 3358.22 5798.32 3747.52C5747.32 3798.52 5670 3803.89 5625.62 3759.5 5581.24 3715.12 5586.6 3637.8 5637.6 3586.8L6026.9 3197.5C6077.9 3146.5 6155.22 3141.14 6199.61 3185.52 6243.99 3229.9 6238.62 3307.22 6187.62 3358.22Z" fill="url(#fill14)" fill-rule="evenodd"/><path d="M3131.59 6829.1C2973.09 6987.6 2716.1 6987.6 2557.6 6829.1 2399.1 6670.6 2399.1 6413.61 2557.6 6255.11 2716.1 6096.61 2973.09 6096.61 3131.59 6255.11 3290.09 6413.61 3290.09 6670.6 3131.59 6829.1Z" fill="url(#fill15)" fill-rule="evenodd"/><path d="M3333.03 5894.53 3974.89 5252.67C4058.98 5168.59 4163.12 5136.4 4207.5 5180.78 4251.88 5225.16 4219.69 5329.3 4135.61 5413.39L3493.75 6055.25C3409.67 6139.33 3305.52 6171.52 3261.14 6127.14 3216.76 6082.75 3248.95 5978.61 3333.03 5894.53Z" fill="url(#fill16)" fill-rule="evenodd"/><path d="M3199.05 6028.52 3588.35 5639.21C3639.35 5588.21 3716.67 5582.85 3761.05 5627.23 3805.43 5671.61 3800.06 5748.93 3749.06 5799.93L3359.76 6189.23C3308.76 6240.23 3231.44 6245.6 3187.06 6201.22 3142.68 6156.84 3148.05 6079.52 3199.05 6028.52Z" fill="url(#fill17)" fill-rule="evenodd"/><path d="M6829.07 6253.93C6987.57 6412.43 6987.57 6669.41 6829.07 6827.92 6670.56 6986.42 6413.58 6986.42 6255.08 6827.92 6096.57 6669.41 6096.57 6412.43 6255.08 6253.93 6413.58 6095.42 6670.56 6095.42 6829.07 6253.93Z" fill="url(#fill18)" fill-rule="evenodd"/><path d="M5894.49 6052.48 5252.64 5410.63C5168.55 5326.54 5136.37 5222.4 5180.75 5178.02 5225.13 5133.64 5329.27 5165.82 5413.35 5249.91L6055.21 5891.77C6139.3 5975.85 6171.48 6079.99 6127.1 6124.37 6082.72 6168.75 5978.58 6136.57 5894.49 6052.48Z" fill="url(#fill19)" fill-rule="evenodd"/><path d="M6028.48 6186.47 5639.18 5797.17C5588.18 5746.17 5582.81 5668.85 5627.2 5624.47 5671.58 5580.09 5748.9 5585.45 5799.9 5636.45L6189.2 6025.75C6240.2 6076.75 6245.56 6154.08 6201.18 6198.46 6156.8 6242.84 6079.48 6237.47 6028.48 6186.47Z" fill="url(#fill20)" fill-rule="evenodd"/><path d="M2557.6 3130.44C2399.1 2971.94 2399.1 2714.95 2557.6 2556.45 2716.1 2397.95 2973.09 2397.95 3131.59 2556.45 3290.09 2714.95 3290.09 2971.94 3131.59 3130.44 2973.09 3288.94 2716.1 3288.94 2557.6 3130.44Z" fill="url(#fill21)" fill-rule="evenodd"/><path d="M3492.17 3331.89 4134.03 3973.74C4218.11 4057.83 4250.3 4161.97 4205.92 4206.35 4161.54 4250.73 4057.4 4218.54 3973.31 4134.46L3331.46 3492.6C3247.37 3408.52 3215.18 3304.38 3259.56 3259.99 3303.95 3215.61 3408.09 3247.8 3492.17 3331.89Z" fill="url(#fill22)" fill-rule="evenodd"/><path d="M3358.18 3197.9 3747.49 3587.2C3798.49 3638.2 3803.85 3715.52 3759.47 3759.9 3715.09 3804.28 3637.77 3798.92 3586.77 3747.92L3197.47 3358.61C3146.47 3307.61 3141.1 3230.29 3185.48 3185.91 3229.86 3141.53 3307.18 3146.9 3358.18 3197.9Z" fill="url(#fill23)" fill-rule="evenodd"/></g></g></svg>